<?xml version="1.0" standalone="no"?>
<!DOCTYPE svg PUBLIC "-//W3C//DTD SVG 20010904//EN"
 "http://www.w3.org/TR/2001/REC-SVG-20010904/DTD/svg10.dtd">
<svg version="1.0" xmlns="http://www.w3.org/2000/svg"
 width="1280.000000pt" height="981.000000pt" viewBox="0 0 1280.000000 981.000000"
 preserveAspectRatio="xMidYMid meet">
<metadata>
Created by potrace 1.15, written by Peter Selinger 2001-2017
</metadata>
<g transform="translate(0.000000,981.000000) scale(0.100000,-0.100000)"
fill="#000000" stroke="none">
<path d="M10511 9542 c-25 -27 -59 -68 -74 -91 -22 -34 -32 -41 -48 -36 -12 4
-38 -1 -61 -11 -31 -14 -46 -16 -68 -7 -49 18 -89 -2 -254 -129 -52 -41 -78
-68 -86 -92 -6 -18 -31 -53 -56 -77 -58 -56 -70 -80 -78 -156 -4 -35 -12 -76
-17 -92 -8 -24 -6 -39 10 -77 12 -25 21 -48 21 -50 0 -2 -19 -8 -42 -14 -71
-18 -88 -28 -88 -52 0 -32 40 -115 93 -192 25 -36 53 -87 63 -113 10 -27 30
-63 46 -81 26 -31 38 -82 20 -82 -5 0 -17 9 -28 21 -21 23 -127 79 -187 99
-49 16 -67 2 -67 -53 l0 -40 -23 21 c-13 12 -36 22 -51 22 -16 0 -65 18 -109
41 -90 46 -82 46 -202 -5 -37 -15 -91 -28 -140 -32 -44 -4 -98 -13 -119 -21
-72 -25 -147 -97 -161 -155 -6 -23 -4 -28 11 -28 81 0 150 -53 201 -154 60
-120 99 -174 136 -190 22 -9 37 -23 41 -40 3 -14 26 -50 51 -81 48 -59 52 -70
30 -98 -29 -39 6 -79 92 -108 56 -18 68 -27 91 -65 17 -28 42 -51 72 -66 36
-18 48 -31 58 -63 17 -52 21 -56 78 -66 26 -5 55 -16 65 -25 10 -9 45 -19 78
-23 39 -5 72 -16 92 -30 22 -16 41 -22 65 -19 22 3 34 0 34 -8 0 -18 -57 -142
-81 -175 l-20 -29 -44 25 c-23 14 -87 37 -141 52 -95 25 -112 27 -386 29
l-287 3 -108 47 c-144 63 -192 67 -278 25 -66 -33 -115 -82 -150 -151 -26 -50
-32 -150 -11 -191 9 -18 15 -33 14 -34 -2 -1 -48 8 -103 21 -115 27 -248 31
-318 10 -26 -8 -68 -29 -94 -48 l-48 -34 -2 48 c-6 164 -187 283 -330 218 -25
-11 -43 -15 -43 -8 0 5 39 47 86 92 87 82 124 136 124 178 -1 41 -38 107 -72
128 -40 24 -117 27 -176 6 -22 -8 -93 -44 -159 -80 -143 -79 -202 -97 -241
-75 -36 20 -52 56 -64 142 -5 40 -12 83 -14 97 -10 47 -27 -8 -32 -105 -5
-110 6 -153 53 -193 69 -61 141 -53 355 38 138 60 205 76 205 52 0 -8 -36 -44
-80 -81 -95 -80 -119 -112 -145 -202 -50 -168 -51 -259 -1 -379 38 -93 99
-156 186 -191 51 -20 78 -24 175 -24 108 0 118 2 162 28 27 16 77 63 118 112
38 46 76 87 82 91 28 17 149 5 294 -30 83 -20 159 -36 169 -36 10 0 88 -30
174 -67 152 -66 158 -68 241 -68 73 0 90 3 118 23 85 61 96 200 21 269 -41 37
-113 63 -263 93 -148 31 -204 49 -225 73 -16 20 1 62 42 105 41 42 71 42 175
-4 103 -44 196 -55 352 -43 270 21 323 21 429 5 90 -14 211 -54 211 -70 0 -3
-9 -29 -20 -58 -18 -49 -25 -56 -88 -89 -37 -19 -144 -85 -237 -146 -200 -129
-256 -159 -392 -206 -205 -72 -429 -122 -758 -171 -429 -63 -641 -80 -967 -74
l-253 5 -250 51 c-379 78 -487 86 -723 57 -117 -15 -330 -54 -401 -75 -19 -5
-36 -9 -37 -7 -1 1 -9 16 -17 33 l-16 32 63 -5 c131 -11 237 51 307 179 31 57
34 71 34 144 0 72 -3 86 -30 129 -58 94 -157 145 -279 145 -73 0 -122 -13
-167 -43 -42 -28 -98 -102 -106 -138 -3 -16 -9 -26 -14 -23 -20 12 -7 82 32
172 60 141 75 210 60 276 -15 69 -58 134 -132 199 -74 65 -175 127 -207 127
-24 0 -24 0 -7 -27 10 -16 44 -59 76 -98 32 -38 74 -97 93 -129 53 -88 50
-113 -31 -274 -67 -133 -68 -135 -68 -215 0 -72 4 -89 30 -137 17 -30 62 -89
101 -130 39 -41 76 -91 83 -110 6 -20 26 -59 45 -87 l34 -52 -106 -25 c-231
-55 -284 -61 -522 -61 -187 1 -249 5 -366 24 l-140 23 -58 140 c-32 77 -70
166 -84 197 -14 31 -26 63 -27 71 0 8 -12 33 -26 56 -33 50 -99 180 -99 194 0
6 15 8 38 4 34 -5 44 -2 75 25 27 24 53 35 107 45 39 8 79 21 90 31 10 9 42
23 71 30 58 15 89 43 89 80 0 27 36 75 55 75 19 0 85 59 85 75 0 31 52 75 108
91 32 10 68 29 84 45 28 27 37 72 18 84 -5 3 -14 14 -20 25 -8 14 0 31 41 84
29 36 55 81 58 98 5 24 18 38 51 58 41 24 51 38 115 166 39 77 77 149 85 160
26 35 77 66 127 79 70 18 70 45 2 119 -79 87 -155 116 -302 116 -51 0 -92 8
-142 26 -38 14 -87 30 -107 37 -41 12 -45 11 -163 -58 -33 -19 -73 -35 -89
-35 -19 0 -41 -10 -58 -27 l-28 -27 0 35 c0 41 -24 79 -50 79 -31 0 -201 -92
-242 -130 -27 -27 -39 -32 -43 -22 -10 27 -5 45 26 83 17 22 37 61 44 88 7 27
36 88 64 134 91 150 117 226 93 264 -5 7 -35 18 -68 24 -32 7 -63 15 -68 20
-5 4 1 31 14 61 21 51 21 56 6 92 -8 20 -18 61 -21 89 -11 90 -15 99 -84 171
-37 39 -79 90 -92 114 -13 24 -39 53 -59 65 -19 11 -66 44 -105 73 -117 87
-184 113 -239 93 -27 -10 -42 -9 -80 4 -26 9 -60 14 -76 11 -25 -6 -32 0 -69
54 -45 67 -115 132 -143 132 -9 0 -24 -10 -32 -23 -25 -36 -56 -185 -62 -292
-6 -92 -9 -102 -35 -130 -16 -17 -32 -46 -35 -65 -4 -19 -20 -49 -36 -66 -27
-29 -29 -36 -23 -78 7 -45 6 -48 -29 -79 -54 -47 -58 -89 -16 -170 l32 -62
-22 -60 c-12 -33 -29 -78 -37 -99 -14 -39 -14 -39 20 -73 20 -18 44 -59 57
-93 24 -64 40 -83 110 -135 25 -18 59 -51 74 -74 26 -37 28 -44 14 -57 -20
-21 -84 -30 -103 -14 -8 7 -41 62 -72 122 -32 61 -75 127 -97 150 l-41 41 -2
86 c-8 286 -6 276 -40 314 -36 41 -39 48 -52 136 -11 67 -32 111 -55 111 -7 0
-27 -7 -45 -16 -17 -8 -56 -16 -86 -17 -47 -1 -61 4 -107 35 -66 45 -126 75
-197 99 -72 25 -90 24 -101 -6 -12 -33 -41 -32 -145 0 -97 31 -193 42 -222 26
-12 -6 -25 -27 -30 -48 l-9 -38 -72 -7 c-55 -6 -88 -16 -135 -42 -40 -22 -97
-42 -162 -56 -55 -11 -127 -33 -160 -49 -70 -32 -161 -116 -171 -157 -10 -39
25 -66 173 -131 65 -28 117 -55 116 -60 -1 -4 -7 -63 -14 -131 -15 -143 -18
-136 83 -186 58 -29 63 -34 63 -64 0 -23 8 -38 28 -55 26 -21 27 -23 12 -44
-11 -16 -26 -23 -51 -23 -19 0 -34 -4 -34 -9 0 -5 25 -68 55 -141 35 -85 68
-147 90 -172 20 -21 38 -51 41 -67 4 -19 29 -48 75 -87 38 -32 69 -59 69 -60
0 -1 -14 -34 -30 -74 -17 -40 -30 -81 -30 -91 0 -29 95 -80 188 -101 46 -10
88 -15 95 -11 6 3 56 7 111 8 56 1 160 6 233 10 149 9 214 -4 265 -53 51 -47
28 -152 -33 -152 -12 0 -101 27 -200 61 -144 49 -186 59 -217 54 -24 -4 -50
-1 -73 9 -19 8 -101 31 -183 50 -81 20 -160 43 -176 53 -21 12 -41 45 -76 122
-97 214 -157 292 -267 345 -241 118 -533 41 -633 -167 -58 -123 -54 -209 20
-427 20 -57 36 -104 36 -106 0 -1 -15 2 -32 7 -72 21 -205 23 -274 4 -136 -37
-296 -170 -361 -302 -31 -63 -37 -87 -41 -157 -7 -128 26 -218 132 -356 l34
-44 -48 -17 c-64 -22 -98 -49 -137 -107 -43 -63 -65 -149 -54 -209 11 -58 36
-92 92 -123 37 -21 56 -25 124 -24 50 1 94 8 117 18 21 9 38 14 38 11 0 -4
-32 -57 -72 -118 -40 -62 -88 -143 -108 -182 -33 -66 -35 -75 -35 -170 0 -91
2 -104 26 -140 15 -22 35 -47 45 -57 35 -31 139 -76 198 -87 123 -22 127 -9
16 50 -156 83 -202 147 -179 249 14 62 40 105 153 255 119 155 141 201 163
336 34 203 23 239 -128 429 -90 114 -130 179 -143 233 -17 70 48 167 158 239
52 33 67 38 119 38 33 0 96 -7 140 -16 160 -33 245 -6 294 94 36 73 29 145
-31 321 -75 218 -64 280 55 315 62 19 82 20 149 5 86 -18 125 -63 195 -224 74
-172 133 -237 261 -289 33 -13 88 -30 122 -37 64 -13 77 -23 43 -32 -13 -3
-26 -26 -41 -74 l-23 -69 -161 -89 c-88 -49 -195 -107 -236 -131 l-75 -42 1
-63 c1 -35 5 -118 9 -184 4 -67 2 -197 -4 -297 -10 -169 -12 -180 -46 -254
-41 -89 -39 -84 -20 -84 18 0 35 -39 35 -81 0 -16 7 -45 14 -64 22 -52 48 -46
125 29 89 85 157 120 235 118 49 -2 68 3 111 28 73 42 99 40 130 -10 26 -42
56 -61 120 -79 31 -8 44 -8 61 4 20 13 23 12 37 -8 12 -18 23 -22 63 -21 61 1
127 34 208 103 33 28 74 56 92 61 18 6 35 19 38 28 7 20 157 176 192 199 18
11 28 13 37 4 23 -18 55 -149 72 -288 4 -29 9 -53 12 -53 25 0 145 72 192 115
52 49 63 55 102 55 90 1 207 86 254 186 14 30 28 54 31 54 2 0 35 -15 72 -34
137 -69 379 -155 562 -201 36 -9 83 -21 104 -26 l39 -11 -54 -46 c-210 -183
-421 -401 -544 -564 l-73 -97 -38 65 c-149 254 -469 310 -663 116 -74 -74
-131 -202 -131 -294 0 -21 -2 -38 -5 -38 -2 0 -20 11 -40 25 -103 70 -264 90
-372 48 -155 -61 -258 -207 -270 -383 -8 -118 38 -259 114 -349 l29 -34 -43
-44 c-92 -95 -138 -249 -114 -387 l12 -74 -49 -46 c-142 -133 -174 -364 -76
-557 34 -67 113 -149 183 -189 56 -32 60 -38 61 -71 0 -51 25 -127 59 -181
l30 -47 -32 -62 c-29 -57 -32 -70 -32 -153 0 -104 19 -157 82 -221 55 -57 114
-80 204 -80 l76 1 6 -67 c7 -82 41 -158 97 -216 63 -66 111 -87 200 -88 41 0
88 4 104 8 l28 8 -20 -26 c-60 -76 -69 -235 -19 -330 60 -116 156 -179 272
-179 52 0 82 6 117 23 125 60 193 216 159 363 -9 37 -9 38 18 30 14 -4 56 -7
92 -6 112 2 195 59 247 172 21 48 24 64 20 140 -3 63 -11 100 -27 132 l-22 45
23 15 c51 33 111 97 133 140 42 82 51 204 21 280 -5 13 4 15 66 12 57 -3 86 1
132 19 196 73 288 329 187 516 -21 39 -25 53 -15 53 39 0 149 63 208 120 137
131 188 313 136 482 -20 64 -87 171 -113 181 -12 4 -13 27 -10 119 5 101 3
121 -19 185 l-24 71 59 -46 c85 -67 148 -139 202 -232 56 -98 67 -104 220
-119 82 -8 123 -18 163 -37 42 -21 64 -25 98 -21 l45 5 -18 -27 c-50 -77 -55
-113 -19 -136 57 -37 352 -74 414 -52 19 7 22 5 22 -15 0 -41 -22 -58 -93 -74
-48 -11 -79 -26 -109 -51 -50 -42 -104 -69 -224 -116 -166 -64 -241 -109 -275
-164 -25 -39 -18 -54 52 -130 27 -28 49 -58 49 -66 0 -9 -24 -29 -54 -45 -57
-33 -96 -74 -96 -102 0 -25 -22 -74 -69 -155 -47 -81 -50 -110 -24 -246 14
-75 15 -97 4 -156 -12 -63 -12 -72 9 -128 12 -33 35 -107 51 -164 51 -178 133
-311 192 -311 31 0 44 -11 80 -66 20 -30 47 -56 69 -66 l36 -17 4 -143 c5
-144 21 -220 52 -231 52 -20 257 138 372 289 60 78 74 88 144 99 21 3 55 22
84 45 37 31 57 40 85 40 48 0 66 14 90 73 20 47 21 47 67 47 62 0 127 32 155
76 12 20 25 64 30 104 5 39 13 79 19 89 5 11 45 41 87 67 164 100 158 93 142
157 -10 35 -8 56 9 127 35 143 36 149 8 223 -27 71 -43 187 -32 231 5 21 12
26 39 26 45 -1 99 -30 115 -63 11 -23 10 -44 -10 -150 -16 -88 -23 -160 -23
-257 l-1 -136 -48 -59 c-27 -33 -69 -95 -94 -138 -25 -43 -64 -99 -86 -124
-41 -47 -41 -47 -41 -128 0 -78 -2 -85 -53 -186 -72 -144 -69 -189 16 -189 33
0 149 -67 175 -102 10 -13 25 -50 33 -83 19 -72 71 -177 135 -272 61 -90 74
-98 116 -72 44 27 51 22 171 -137 147 -194 204 -227 276 -163 41 36 57 34 127
-17 55 -40 117 -64 166 -64 56 0 123 -20 223 -67 195 -92 283 -112 419 -93
127 17 169 47 155 107 -9 38 -60 138 -133 261 -34 57 -61 106 -61 108 0 2 51
57 113 122 63 65 119 133 125 150 10 29 7 40 -39 128 -56 105 -55 91 -5 160 6
8 5 27 -4 54 -13 39 -13 43 5 56 27 20 54 17 101 -10 l42 -23 50 196 c46 177
51 203 45 271 -4 53 -1 85 9 110 13 31 12 45 -8 145 -13 60 -23 115 -24 122 0
7 43 38 95 69 53 31 100 65 105 75 7 13 1 38 -23 94 -42 100 -170 257 -204
250 -16 -4 -27 3 -43 25 -27 39 -117 102 -253 178 -60 34 -137 84 -171 111
-125 100 -192 222 -162 295 20 49 70 86 116 86 47 0 48 -1 200 -225 63 -93
134 -189 157 -213 l41 -44 73 5 c69 4 75 7 101 38 l29 34 173 -59 173 -60 84
56 84 57 245 -34 c135 -19 302 -43 371 -53 l127 -18 39 60 c22 34 59 98 82
143 23 45 53 93 65 106 13 14 34 40 47 59 13 18 97 121 187 228 l164 195 99
53 c55 29 99 57 99 61 0 4 -5 12 -11 18 -14 14 4 72 38 124 49 75 49 142 -2
155 -14 3 -64 -2 -112 -11 -153 -30 -301 -5 -377 65 -50 47 -82 60 -142 60
-55 0 -109 21 -124 49 -6 13 -8 40 -4 71 6 44 3 59 -25 115 -39 78 -82 118
-120 110 -25 -5 -26 -4 -26 36 0 35 -6 46 -35 70 -63 53 -116 64 -306 64 -122
0 -175 4 -186 13 -12 10 -22 9 -49 -2 -69 -29 -350 -71 -396 -60 -51 13 -20
119 98 335 38 69 69 128 69 131 0 3 -41 13 -90 23 -87 17 -187 17 -291 -1 -30
-5 -42 -1 -70 24 -49 42 -69 51 -146 62 -109 15 -201 -2 -310 -57 -97 -49
-132 -54 -181 -29 -29 15 -224 76 -249 78 -6 1 -84 -32 -172 -73 -136 -63
-160 -77 -161 -96 0 -12 -14 -38 -30 -57 -42 -47 -65 -106 -85 -210 -18 -99
-29 -126 -50 -126 -25 0 -45 42 -45 96 0 65 34 264 55 324 8 25 61 149 116
276 l101 231 187 12 c445 29 917 98 1220 177 238 62 408 132 578 236 91 56
101 55 147 -5 45 -58 49 -83 57 -322 7 -229 36 -459 74 -587 35 -118 116 -232
237 -334 97 -81 176 -131 403 -254 235 -127 315 -182 480 -331 135 -121 203
-198 230 -262 33 -79 17 -128 -99 -309 -122 -191 -130 -212 -131 -333 0 -97 1
-104 38 -178 46 -92 117 -173 189 -212 45 -26 64 -30 128 -30 62 0 82 4 113
24 95 59 131 156 151 411 14 176 30 250 45 220 5 -8 18 -56 31 -107 29 -120
70 -190 130 -221 39 -20 56 -23 125 -20 68 4 90 9 145 38 134 71 219 195 206
303 -9 81 -50 140 -189 271 -131 123 -157 156 -157 200 0 39 10 55 54 85 54
37 125 60 208 68 60 5 73 3 120 -20 29 -15 79 -49 111 -77 56 -48 86 -64 71
-38 -96 163 -177 218 -324 218 -213 0 -360 -101 -360 -248 0 -77 39 -141 165
-272 61 -63 119 -126 128 -140 27 -40 22 -94 -13 -134 -64 -72 -196 -111 -220
-66 -6 11 -20 62 -31 113 -25 116 -63 195 -109 225 -48 32 -140 28 -194 -8
-82 -56 -110 -136 -131 -365 -14 -160 -34 -252 -56 -266 -39 -24 -134 66 -170
160 -20 54 -20 57 -4 111 10 30 53 110 97 178 93 144 124 208 139 285 19 107
-25 246 -112 352 l-40 48 53 31 c75 43 129 103 175 193 84 162 128 377 88 429
-15 18 -16 18 -43 -13 -15 -17 -65 -98 -112 -179 -53 -92 -106 -170 -142 -207
l-56 -60 -69 6 c-93 7 -152 32 -253 105 -47 34 -180 110 -296 171 -412 213
-535 312 -593 476 -42 120 -89 381 -100 560 -6 94 -17 193 -25 221 -18 69 -63
149 -102 183 -27 24 -29 29 -15 38 140 90 205 126 295 161 59 23 112 40 117
36 6 -3 16 1 22 9 7 8 50 27 97 42 47 15 117 40 156 55 l70 27 29 -54 c46 -88
139 -153 221 -153 41 0 52 -5 91 -41 36 -33 171 -106 178 -97 1 2 7 50 13 108
12 105 24 163 41 189 13 20 67 -18 161 -114 40 -41 79 -75 87 -75 8 0 40 -20
71 -44 74 -56 112 -75 166 -82 40 -6 47 -4 70 21 14 15 26 22 26 15 0 -20 83
-6 119 19 17 13 38 36 46 52 19 35 49 38 105 9 26 -13 59 -20 100 -20 75 0
133 -26 205 -91 81 -74 106 -65 118 41 4 33 13 60 22 67 14 10 12 19 -18 80
-31 63 -35 82 -51 245 -13 130 -16 211 -11 302 l7 124 -211 103 c-116 56 -211
105 -211 108 0 3 64 44 142 91 202 121 247 169 201 215 -13 13 -28 16 -63 12
-72 -9 -223 -54 -363 -109 -146 -57 -183 -58 -194 -7 -7 38 -56 79 -94 79 -16
0 -75 -19 -131 -41 -57 -23 -127 -50 -156 -60 l-53 -18 -25 24 c-51 51 -20
121 69 151 44 16 82 18 262 16 236 -2 307 9 383 60 49 34 52 50 17 118 -14 27
-25 56 -25 63 0 8 23 35 50 61 28 26 57 64 66 84 8 20 24 46 34 57 11 12 37
70 59 131 22 60 42 117 46 127 6 14 2 17 -23 17 -28 0 -62 21 -62 38 0 4 9 13
19 19 12 7 21 26 23 45 3 28 11 37 51 59 85 46 84 42 63 170 -10 61 -16 112
-14 114 2 1 41 22 88 45 168 83 182 109 100 183 -67 60 -122 84 -234 102 -58
9 -120 27 -158 45 -45 21 -78 30 -115 30 -51 0 -53 1 -70 38 -26 53 -65 54
-207 6 l-109 -37 -22 26 c-18 23 -25 26 -50 18 -48 -13 -166 -76 -209 -110
-32 -25 -48 -31 -89 -31 -28 0 -66 6 -85 12 -30 11 -35 10 -47 -5 -7 -10 -16
-44 -19 -75 -9 -76 -23 -116 -47 -138 -18 -16 -20 -30 -18 -176 l1 -158 -30
-34 c-16 -19 -42 -60 -57 -92 -81 -176 -78 -172 -135 -155 -25 7 -40 18 -40
27 0 9 33 49 74 90 57 57 79 87 96 131 12 32 33 70 47 85 l26 27 -31 71 c-38
83 -39 106 -11 160 29 55 20 100 -27 138 -32 27 -35 32 -28 67 6 33 3 40 -25
65 -18 17 -31 39 -31 53 0 13 -13 36 -29 51 -24 23 -29 38 -34 94 -7 75 -41
211 -62 252 -24 47 -43 45 -94 -8z m-251 -2509 c-4 -16 -17 -51 -28 -79 -21
-52 -32 -169 -19 -191 5 -7 -11 -17 -45 -29 -29 -9 -58 -19 -64 -21 -25 -9 21
159 71 258 33 66 53 89 76 89 15 0 16 -5 9 -27z m-2520 -383 c34 -34 17 -127
-25 -144 -23 -8 -98 -7 -112 2 -31 20 55 162 98 162 10 0 28 -9 39 -20z
m-3789 -61 c16 -18 52 -77 79 -133 40 -81 58 -135 89 -271 22 -93 39 -171 37
-172 -3 -3 -234 75 -257 87 -19 11 -18 14 31 105 28 52 48 100 44 106 -3 6 -7
36 -9 67 -2 42 -13 78 -40 134 -50 103 -36 143 26 77z m1930 -135 c41 -21 50
-44 36 -89 -17 -58 -67 -105 -109 -105 -38 0 -125 27 -134 41 -13 22 19 123
48 152 27 27 33 29 80 23 28 -4 64 -14 79 -22z m-5301 -552 c0 -4 -13 -16 -29
-25 -41 -24 -111 -48 -111 -38 0 20 43 60 68 64 49 7 72 7 72 -1z m6217 -171
c122 -27 242 -53 267 -56 l46 -7 0 -62 c0 -55 11 -143 26 -218 4 -21 2 -27 -8
-23 -10 4 -13 -13 -15 -73 -2 -80 -29 -259 -45 -301 l-9 -24 -40 39 c-39 38
-42 39 -112 39 -73 1 -90 7 -187 60 -34 19 -54 23 -85 19 -31 -4 -54 2 -103
26 -35 16 -74 30 -86 30 -12 0 -43 -18 -70 -40 -57 -47 -84 -56 -127 -41 -53
18 -101 13 -164 -19 -73 -36 -98 -37 -187 -5 -83 30 -132 32 -175 5 -30 -18
-33 -24 -33 -69 0 -27 -6 -53 -13 -59 -7 -6 -57 -23 -111 -38 -67 -19 -110
-37 -131 -55 -30 -26 -37 -28 -116 -26 l-84 2 -125 -64 c-69 -36 -155 -80
-191 -99 -75 -38 -160 -51 -226 -33 -38 10 -43 16 -58 61 -21 64 -84 157 -130
193 -87 69 -219 105 -315 87 -29 -6 -55 -8 -57 -6 -2 2 45 49 104 106 175 165
305 258 623 442 l135 78 115 0 c151 0 402 39 650 100 280 69 436 90 640 85
167 -3 185 -6 397 -54z m288 -934 c13 -123 -17 -182 -52 -100 -18 44 -13 110
12 169 15 35 18 37 25 18 4 -11 11 -50 15 -87z m-3298 -339 c-3 -8 -6 -5 -6 6
-1 11 2 17 5 13 3 -3 4 -12 1 -19z m-325 -113 c-4 -25 -5 -25 -22 -8 -15 16
-15 19 -1 25 26 11 28 9 23 -17z m-497 -2066 c-35 -13 -45 -10 -45 16 l0 26
32 -17 c30 -16 31 -18 13 -25z"/>
</g>
</svg>
