<svg xmlns="http://www.w3.org/2000/svg" viewBox="0 0 28 42" fill="none" aria-hidden="true">
  <defs>
    <linearGradient id="k" x1="0%" y1="0%" x2="100%" y2="100%">
      <stop offset="0%" stop-color="#8b6f56"/>
      <stop offset="35%" stop-color="#6b4e3d"/>
      <stop offset="72%" stop-color="#4a3529"/>
      <stop offset="100%" stop-color="#34241c"/>
    </linearGradient>
  </defs>
  <ellipse cx="14" cy="12.5" rx="5.4" ry="1.05" stroke="#4a3529" stroke-width="0.32" opacity="0.55"/>
  <ellipse cx="14" cy="17.2" rx="6.8" ry="1.2" stroke="#4a3529" stroke-width="0.32" opacity="0.48"/>
  <ellipse cx="14" cy="22.5" rx="7.35" ry="1.1" stroke="#4a3529" stroke-width="0.3" opacity="0.42"/>
  <ellipse cx="14" cy="27.2" rx="6.9" ry="1" stroke="#4a3529" stroke-width="0.28" opacity="0.36"/>
  <path d="M 5 10.5 Q 2.4 11.6 2.6 14.2 Q 3.1 16.2 5.2 15.4" stroke="#3d2a22" stroke-width="0.75" stroke-linecap="round" stroke-linejoin="round" fill="none"/>
  <path d="M 23 10.5 Q 25.6 11.6 25.4 14.2 Q 24.9 16.2 22.8 15.4" stroke="#3d2a22" stroke-width="0.75" stroke-linecap="round" stroke-linejoin="round" fill="none"/>
  <path
    d="M 14 3.2 C 16.8 3.2 17.6 4.2 17.4 5.8 L 16.6 8.4 C 16.3 9.6 16.9 10.4 17.8 10.9 C 22.8 12.8 25.2 18.2 24.8 24.5 C 24.4 30.5 20.2 35.2 14 36.2 C 7.8 35.2 3.6 30.5 3.2 24.5 C 2.8 18.2 5.2 12.8 10.2 10.9 C 11.1 10.4 11.7 9.6 11.4 8.4 L 10.6 5.8 C 10.4 4.2 11.2 3.2 14 3.2 Z"
    fill="url(#k)"
    stroke="#261a14"
    stroke-width="0.42"
  />
  <ellipse cx="14" cy="5.1" rx="3.1" ry="1.15" fill="#5a4234" opacity="0.92"/>
  <ellipse cx="14" cy="4.35" rx="2.35" ry="0.78" fill="#8a6b52" opacity="0.75"/>
  <ellipse cx="14" cy="4.05" rx="1.55" ry="0.45" fill="#2a1e18" opacity="0.35"/>
</svg>
